<svg id="SvgjsSvg1000" xmlns="http://www.w3.org/2000/svg" version="1.1" xmlns:xlink="http://www.w3.org/1999/xlink" xmlns:svgjs="http://svgjs.com/svgjs" width="154" height="64" viewBox="0 0 154 64"><defs id="SvgjsDefs1001"></defs><path id="SvgjsPath1007" d="M174.827 61.8499C174.377 68.6203 169.07999999999998 72.9493 161.942 72.9493C155.07 72.9493 151.94 69.78729999999999 151.94 66.84979999999999C151.94 65.22859999999999 153.187 64.01599999999999 154.419 63.655599999999986C154.601 63.614499999999985 154.709 63.600599999999986 154.805 63.600599999999986C155.089 63.600599999999986 155.25 63.72969999999999 155.336 63.838199999999986C155.54600000000002 64.10169999999998 155.477 64.40549999999999 155.388 64.78929999999998C155.363 64.89779999999999 155.334 65.02279999999999 155.305 65.16709999999998C155.124 66.18779999999998 155.125 67.68189999999997 156.178 68.93879999999997C157.339 70.32529999999997 159.538 71.05879999999998 162.535 71.05879999999998C167.078 71.05879999999998 172.152 67.46199999999997 172.429 61.65169999999998C172.632 56.87909999999998 170.282 53.533299999999976 166.374 52.89369999999998C166.707 53.73359999999998 166.91 54.66039999999998 166.97899999999998 55.66039999999998C167.14999999999998 58.246299999999984 166.493 60.50899999999998 165.13 62.032499999999985C164.02599999999998 63.266899999999985 162.521 63.96129999999999 160.77599999999998 64.04019999999998C159.30599999999998 64.11339999999998 158.11599999999999 63.61629999999998 157.266 62.645699999999984C156.322 61.567599999999985 155.91199999999998 59.95339999999998 156.143 58.21589999999998C156.579 54.81279999999998 158.802 52.16619999999998 162.03 51.123299999999986C160.385 49.81069999999998 158.006 49.042099999999984 155.22 48.939799999999984C151.978 48.809699999999985 149.156 49.48269999999999 146.787 50.909399999999984C145.58100000000002 58.350799999999985 143.09900000000002 66.92489999999998 140.01000000000002 66.92489999999998C139.372 66.92489999999998 138.776 66.52959999999997 138.33300000000003 65.81079999999999C137.29100000000003 64.11739999999999 137.07300000000004 60.50519999999999 139.05500000000004 56.57139999999998C140.53600000000003 53.657499999999985 142.23500000000004 51.515999999999984 144.24600000000004 50.031399999999984C144.50300000000004 47.673999999999985 144.69400000000005 45.227899999999984 144.81300000000005 42.73449999999998C143.82600000000005 43.99449999999998 142.65700000000004 44.70429999999998 141.46100000000004 44.73939999999998C140.45700000000005 46.13689999999998 139.16600000000005 46.90369999999998 137.80500000000004 46.90369999999998C136.62400000000002 46.90369999999998 135.53500000000003 46.41819999999998 134.65200000000004 45.49929999999998C133.33500000000004 44.12709999999998 132.66500000000005 42.001199999999976 132.76600000000005 39.51199999999998C132.93400000000005 35.50119999999998 134.57500000000005 32.49629999999998 137.15600000000003 31.47389999999998C137.68400000000003 31.25609999999998 138.20500000000004 31.410399999999978 138.40700000000004 31.81479999999998C138.97100000000003 31.16049999999998 139.67200000000003 30.70819999999998 140.51700000000005 30.55589999999998C141.24800000000005 30.42589999999998 141.93500000000006 30.72179999999998 142.50300000000004 31.37429999999998C143.68800000000005 32.73269999999998 144.14600000000004 35.34779999999998 143.73000000000005 38.37029999999998C143.49100000000004 40.01289999999998 143.11800000000005 41.43769999999998 142.61700000000005 42.62439999999998C143.55100000000004 41.93769999999998 144.45700000000005 40.17199999999998 144.95600000000005 37.92699999999998C144.97200000000004 36.43089999999998 144.96700000000004 35.02939999999998 144.94000000000005 33.64559999999998C144.91000000000005 32.59109999999998 145.25300000000004 32.00899999999998 145.54600000000005 31.70629999999998C145.84300000000005 31.40149999999998 146.23700000000005 31.226899999999983 146.62700000000004 31.226899999999983C147.71100000000004 31.226899999999983 147.76400000000004 31.852699999999984 147.76400000000004 32.958199999999984C147.76400000000004 33.39969999999998 147.77100000000004 33.793199999999985 147.77900000000002 34.27169999999998C147.78300000000002 34.502099999999984 147.78600000000003 34.75519999999998 147.79000000000002 35.04119999999998C148.99500000000003 32.42899999999998 150.53700000000003 30.98569999999998 152.18400000000003 30.98569999999998C152.91900000000004 30.98569999999998 153.59100000000004 31.29429999999998 154.12700000000004 31.85269999999998C155.23200000000003 33.00519999999998 155.74500000000003 35.29109999999998 155.61200000000005 38.41609999999998C155.33200000000005 44.08029999999998 152.11300000000006 46.66439999999998 149.04500000000004 46.66439999999998C148.46800000000005 46.66439999999998 147.92800000000005 46.66139999999998 147.41000000000005 46.45339999999998C147.35300000000007 47.13209999999998 147.28400000000005 48.00899999999998 147.20100000000005 48.67809999999998C149.67300000000006 47.62139999999998 152.54100000000005 47.62029999999998 156.03600000000006 47.84679999999998C160.10000000000005 48.09289999999998 163.12000000000006 50.24729999999998 165.01300000000006 52.24739999999998H165.24900000000005C168.02400000000006 52.24739999999998 170.51000000000005 52.47189999999998 172.25200000000007 54.327399999999976C174.11000000000007 56.30589999999997 175.02400000000006 58.71999999999998 174.82700000000006 61.84989999999998ZM135.973 39.0432C135.87300000000002 41.0637 136.35500000000002 42.8352 137.25900000000001 43.7844C137.51600000000002 44.053799999999995 137.93 44.3762 138.442 44.3762C138.721 44.3762 139.013 44.2881 139.3 44.121199999999995C137.918 43.22579999999999 136.934 41.391799999999996 136.714 39.200399999999995C136.521 37.3567 136.706 35.38779999999999 137.294 33.78939999999999C136.555 34.858599999999996 136.067 36.75019999999999 135.973 39.04319999999999ZM140.933 33.9308C140.879 33.8732 140.801 33.805 140.73 33.805C139.881 34.0491 138.815 36.22 138.941 38.7433C139.002 40.1554 139.496 41.9387 140.667 42.6584C141.099 41.8694 141.555 40.5724 141.675 38.5276C141.83200000000002 36.0792 141.401 34.429 140.93300000000002 33.9308ZM152.322 39.0734C152.534 35.8342 152.122 34.1594 151.665 33.6731C151.542 33.5411 151.45399999999998 33.5411 151.421 33.5411C150.781 33.5411 148.726 36.419200000000004 147.673 43.214L147.609 44.2405C147.955 44.506099999999996 148.404 44.631 149.00300000000001 44.631C150.83200000000002 44.631 152.074 42.5531 152.322 39.0734ZM143.745 53.467C142.909 54.4287 142.191 55.5051 141.603 56.6809C139.823 60.2415 139.899 62.7013 140.38400000000001 63.4867C140.472 63.6291 140.567 63.7072 140.66400000000002 63.719C141.24800000000002 63.4347 142.70700000000002 60.1028 143.745 53.467ZM164.623 56.2319C164.54899999999998 54.973800000000004 164.209 53.8517 163.611 52.89C160.945 53.3967 159.06099999999998 55.2883 158.661 57.8909C158.443 59.1946 158.651 60.3031 159.244 61.0168C159.693 61.556900000000006 160.332 61.838100000000004 161.145 61.8537L161.251 61.855700000000006C162.019 61.855700000000006 162.723 61.53940000000001 163.288 60.93970000000001C164.25300000000001 59.91530000000001 164.741 58.19950000000001 164.62300000000002 56.23190000000001ZM133.375 47.803C133.329 48.0239 133.104 48.5764 131.893 48.426899999999996C129.447 48.1633 128.316 45.1947 128.441 39.3519C128.471 37.9318 128.593 36.751 128.691 35.8019C128.782 34.92 128.88400000000001 33.921200000000006 128.751 33.7239C128.024 33.7619 125.205 37.5334 124.17500000000001 44.3568C124.126 46.0873 123.14800000000001 46.5647 122.57800000000002 46.5647C121.54100000000001 46.5647 121.35700000000001 46.1224 121.35700000000001 44.8761C121.35700000000001 43.4191 121.37300000000002 42.882 121.40300000000002 41.8011C121.42300000000002 41.0852 121.45000000000002 40.130199999999995 121.48400000000002 38.5032C121.55800000000002 35.7628 121.73300000000002 33.1125 122.00500000000002 30.6125C120.62700000000002 30.8468 119.13000000000002 30.8616 117.63100000000003 30.6527C113.36700000000003 30.0842 111.93900000000002 27.342 112.02500000000003 24.964199999999998C112.12900000000003 23.452299999999997 113.45100000000004 22.590999999999998 114.31300000000003 22.376299999999997C114.48800000000003 22.338099999999997 114.60300000000004 22.323499999999996 114.70200000000003 22.323499999999996C115.01100000000002 22.323499999999996 115.17200000000003 22.482699999999994 115.24200000000003 22.577499999999997C115.44800000000004 22.861599999999996 115.35000000000004 23.159399999999998 115.20300000000003 23.6105L115.12100000000004 23.860599999999998C114.93700000000004 24.5492 114.95700000000004 25.3314 115.18500000000003 26.041199999999996C115.30800000000004 26.314699999999995 115.57200000000003 26.700299999999995 116.01800000000003 26.700299999999995C116.32700000000003 26.700299999999995 116.68600000000004 26.516799999999996 117.00200000000002 26.196599999999997C117.67200000000003 25.518799999999995 118.06400000000002 24.369399999999995 118.04900000000002 23.122299999999996C118.00800000000002 20.391899999999996 116.44300000000003 18.789299999999997 113.64000000000001 18.609399999999994C113.45900000000002 18.597999999999995 113.28000000000002 18.591999999999995 113.10100000000001 18.591999999999995C110.57300000000001 18.591999999999995 107.84900000000002 19.867499999999996 107.46400000000001 22.716899999999995C106.97600000000001 26.443499999999997 110.11100000000002 28.341899999999995 113.42900000000002 30.351799999999997L113.80400000000002 30.5783C117.22400000000002 32.6898 120.84700000000002 35.3331 120.57600000000002 40.0286C120.27000000000002 45.0383 115.81300000000002 48.8157 110.20600000000002 48.8157C109.51200000000001 48.8157 108.80800000000002 48.7551 108.11600000000001 48.637C101.23100000000001 47.4484 99.06490000000001 42.1057 99.30220000000001 37.8917C99.40750000000001 36.3752 99.88910000000001 34.2522 101.58600000000001 32.714C102.183 32.1691 104.01500000000001 31.5715 104.60700000000001 31.4866C105.33000000000001 31.3812 105.51700000000001 31.6936 105.59300000000002 31.868299999999998C105.78000000000002 32.2981 105.46000000000002 32.727799999999995 105.08600000000001 33.1282C103.12100000000001 35.051 102.25900000000001 36.5626 101.99300000000001 38.5382C101.754 40.4269 102.263 42.255100000000006 103.42500000000001 43.682C104.635 45.1672 106.48000000000002 46.077400000000004 108.62100000000001 46.2453C112.82900000000001 46.571600000000004 116.78000000000002 44.0481 117.16300000000001 40.9132C117.635 37.093 114.70600000000002 34.7845 111.4 32.56570000000001L110.70500000000001 32.10850000000001C107.24600000000001 29.835200000000007 103.668 27.484600000000007 104.05300000000001 23.45040000000001C104.43 18.86360000000001 109.13100000000001 16.45920000000001 113.58100000000002 16.45920000000001C113.70300000000002 16.45920000000001 113.82400000000001 16.46110000000001 113.94300000000001 16.46530000000001C116.22400000000002 16.549900000000008 118.043 17.27660000000001 119.20600000000002 18.56580000000001C120.24800000000002 19.72300000000001 120.73800000000001 21.278500000000008 120.61900000000001 23.063600000000008C120.50000000000001 25.43190000000001 119.35000000000001 27.528500000000008 117.70500000000001 28.539300000000008C117.98600000000002 28.639800000000008 118.28300000000002 28.71900000000001 118.59500000000001 28.774700000000006C119.805 29.001200000000008 121.05600000000001 28.973900000000008 122.21100000000001 28.697500000000005C123.415 19.862400000000004 125.92800000000001 14.175000000000004 128.644 14.175000000000004C129.263 14.175000000000004 129.853 14.582300000000004 130.306 15.321500000000004C131.479 17.234600000000004 131.714 21.041300000000003 129.895 24.615500000000004C128.697 27.013000000000005 126.97500000000001 28.749200000000005 124.77700000000002 29.777600000000003C124.50500000000001 31.933800000000005 124.35100000000001 34.2578 124.31600000000002 36.7043C125.75300000000001 33.5793 127.81700000000002 30.972700000000003 129.959 30.972700000000003C130.47 30.972700000000003 130.888 31.144800000000004 131.202 31.482800000000005C132.094 32.447500000000005 131.975 34.591100000000004 131.687 38.29820000000001C131.15300000000002 44.81070000000001 131.883 46.48350000000001 132.589 46.74060000000001C133.45 47.12230000000001 133.408 47.64970000000001 133.375 47.803000000000004ZM127.561 24.4191C129.018 21.5051 128.834 18.7786 128.377 17.7453C128.24300000000002 17.4416 128.119 17.3469 128.085 17.3371C127.54 17.583099999999998 126.07100000000001 21.1477 125.096 27.4222C126.105 26.6847 126.931 25.6779 127.561 24.4191ZM99.3119 32.0588C99.3168 32.0588 98.97489999999999 35.530499999999996 98.515 38.7121C95.5854 60.6162 92.7866 63.1506 90.936 63.1506C90.31190000000001 63.1506 89.76020000000001 62.8351 89.34020000000001 62.2397C88.25330000000001 60.6957 88.2279 57.568599999999996 89.27770000000001 54.634C90.54140000000001 51.0588 92.43610000000001 47.8186 94.9086 45.005L94.93790000000001 44.727700000000006C94.06880000000001 46.06470000000001 93.10590000000002 46.776700000000005 92.1235 46.776700000000005C91.1371 46.776700000000005 89.4671 46.282500000000006 88.5443 43.2385C87.0434 45.8557 85.0687 47.328500000000005 83.0043 47.328500000000005C80.9272 47.328500000000005 79.099 46.03450000000001 78.0902 43.93880000000001C77.28949999999999 45.865500000000004 76.17909999999999 47.71020000000001 74.8608 47.71020000000001C73.7787 47.71020000000001 72.9477 46.43770000000001 72.5638 44.295300000000005C71.6127 45.886 70.4847 46.797900000000006 69.3061 46.9014C69.2445 46.906400000000005 69.1899 46.9084 69.136 46.9084C67.8998 46.9084 66.4701 45.8402 65.74159999999999 43.7813C64.5273 45.9846 63.14839999999999 47.221900000000005 61.86609999999999 47.221900000000005C60.18049999999999 47.221900000000005 58.547299999999986 45.218 57.58479999999999 42.09400000000001C56.511099999999985 44.70140000000001 54.852499999999985 47.20140000000001 53.010699999999986 47.20140000000001C52.307999999999986 47.20140000000001 51.58679999999998 46.831300000000006 50.92619999999999 46.1311C49.40519999999999 44.519800000000004 47.75239999999999 40.50620000000001 48.09999999999999 34.4973C48.616599999999984 26.187700000000003 51.65419999999999 14.599000000000004 55.42799999999999 14.599000000000004C55.71429999999999 14.599000000000004 56.12929999999999 14.692600000000004 56.48519999999999 15.139900000000004C57.77759999999999 16.767800000000005 57.25279999999999 22.263800000000003 56.46719999999999 25.647800000000004C55.41189999999999 29.955200000000005 53.11559999999999 35.03920000000001 51.35539999999999 37.920300000000005C51.63809999999999 42.665400000000005 52.76109999999999 44.800900000000006 53.47749999999999 44.800900000000006C54.243599999999994 44.800900000000006 55.909099999999995 42.13400000000001 56.79289999999999 37.94840000000001C56.67459999999999 36.654500000000006 56.65509999999999 35.29710000000001 56.73519999999999 33.911500000000004C57.27729999999999 25.196500000000004 60.45739999999999 13.043200000000002 64.40459999999999 13.043200000000002C64.69949999999999 13.043200000000002 65.1278 13.139900000000003 65.49499999999999 13.602700000000002C66.84709999999998 15.305000000000001 66.2948 21.064700000000002 65.47049999999999 24.611500000000003C64.36359999999999 29.132900000000003 61.951599999999985 34.473800000000004 60.103399999999986 37.49720000000001C60.40029999999999 42.50020000000001 61.59419999999999 44.75220000000001 62.355899999999984 44.75220000000001C62.93199999999998 44.75220000000001 64.27869999999999 43.11250000000001 65.33779999999999 39.59310000000001C65.99309999999998 33.53530000000001 69.53069999999998 31.396800000000006 72.35779999999998 31.396800000000006C73.89289999999998 31.396800000000006 74.76019999999998 31.973900000000008 75.21819999999998 32.458200000000005C75.80119999999998 33.0765 76.09219999999998 33.9271 76.03849999999998 34.8537C75.90759999999999 35.85850000000001 74.38909999999998 36.744400000000006 73.63809999999998 36.885000000000005C73.09709999999998 37.00020000000001 72.83339999999998 36.7826 72.74169999999998 36.6516C72.51989999999998 36.332300000000004 72.64699999999998 35.9894 72.85779999999998 35.422000000000004L72.90749999999998 35.2873C73.18599999999998 34.3889 73.21429999999998 33.761900000000004 72.98379999999999 33.4493C72.82169999999999 33.2286 72.48279999999998 33.1174 71.97699999999999 33.1174C70.32269999999998 33.1174 68.9369 35.412200000000006 68.5277 38.828300000000006C68.2143 41.37140000000001 68.7894 43.341100000000004 69.45739999999999 44.096000000000004C69.6147 44.273700000000005 69.77579999999999 44.376200000000004 69.89789999999999 44.376200000000004C70.7113 44.376200000000004 71.8227 42.754200000000004 72.3754 39.654500000000006L72.3998 39.33910000000001C72.4203 39.06470000000001 72.4399 38.80880000000001 72.5024 38.46610000000001C72.6899 37.49140000000001 73.8149 37.05000000000001 74.7807 37.05000000000001C75.2016 37.05000000000001 75.4837 37.14080000000001 75.6459 37.326400000000014L75.7953 37.49930000000001L75.78059999999999 37.77770000000001C74.79629999999999 42.94650000000001 75.10979999999999 44.87040000000001 75.348 45.26800000000001C75.6352 45.00790000000001 76.3627 43.79710000000001 77.2494 40.328500000000005C77.2367 40.023700000000005 77.2337 39.7111 77.24449999999999 39.387800000000006C77.49649999999998 34.345000000000006 80.13609999999998 30.548200000000005 83.38609999999998 30.548200000000005C84.29729999999998 30.548200000000005 85.04629999999999 30.857800000000005 85.61369999999998 31.469000000000005C86.73379999999997 32.678000000000004 86.68409999999999 34.59780000000001 86.64189999999998 35.157500000000006C86.51029999999997 36.1555 84.98769999999998 36.9562 84.24159999999998 37.09590000000001C83.63029999999998 37.23080000000001 83.42709999999998 37.008900000000004 83.33829999999998 36.88120000000001C83.13419999999998 36.585100000000004 83.25039999999997 36.27660000000001 83.42609999999998 35.80980000000001L83.51099999999998 35.58320000000001C83.89099999999998 34.51290000000001 84.06679999999999 33.12530000000001 83.66449999999998 32.554800000000014C83.57759999999998 32.43190000000001 83.41449999999998 32.268900000000016 83.00429999999997 32.268900000000016C81.73379999999997 32.268900000000016 80.61269999999998 35.17010000000002 80.45059999999997 38.87430000000002C80.37739999999997 41.05300000000002 80.93199999999996 42.97570000000002 81.93599999999996 44.01390000000002C82.43399999999997 44.52860000000002 83.02379999999997 44.80090000000002 83.64099999999996 44.80090000000002C86.03649999999996 44.80090000000002 87.36559999999996 41.72000000000002 87.95839999999997 39.81660000000002C87.81389999999998 37.87600000000002 87.87739999999997 35.58010000000002 88.14779999999998 32.98950000000002C88.27759999999998 31.85680000000002 89.72599999999997 31.43680000000002 90.60769999999998 31.43680000000002C90.98579999999998 31.43680000000002 91.23179999999998 31.51790000000002 91.38319999999997 31.69160000000002L91.53259999999997 31.864500000000017L91.51599999999998 32.13600000000002C90.67419999999997 38.81750000000002 90.78849999999997 42.82350000000002 91.85679999999998 44.03540000000002C92.06189999999998 44.267800000000015 92.29529999999998 44.37620000000002 92.59019999999998 44.37620000000002C93.41149999999998 44.37620000000002 94.96139999999998 41.48070000000002 95.61469999999998 36.24610000000002C95.70639999999999 34.85960000000002 95.83539999999998 33.55880000000002 95.95639999999999 32.79410000000002C96.08339999999998 31.69830000000002 97.5131 31.28250000000002 98.38419999999999 31.28250000000002C98.7914 31.28250000000002 99.05309999999999 31.37430000000002 99.20729999999999 31.57050000000002L99.35669999999999 31.76290000000002ZM54.1795 25.7533C55.160999999999994 21.9787 55.110299999999995 18.784299999999998 54.8197 17.9055C53.785599999999995 19.2961 51.730399999999996 27.586199999999998 51.3705 33.7511C52.5185 31.1222 53.6249 28.0031 54.1795 25.753300000000003ZM63.1176 24.7356C64.16980000000001 20.6877 64.0951 17.3001 63.7738 16.4368C62.685500000000005 17.7951 60.470600000000005 26.692600000000002 60.1117 33.2629C61.3378 30.4739 62.5268 27.133000000000003 63.117599999999996 24.7356ZM91.5326 54.7639C90.5502 57.4085 90.6986 59.0665 91.1644 59.7367C91.2856 59.9114 91.4047 59.9799 91.475 59.986599999999996C92.0385 59.76 93.26509999999999 56.532599999999995 94.38029999999999 48.85379999999999C93.2572 50.72489999999999 92.2563 52.79419999999999 91.53259999999999 54.76389999999999ZM82.7964 53.6283C82.8187 54.22280000000001 82.65870000000001 55.085300000000004 81.76700000000001 55.8098C80.8735 56.556900000000006 79.4115 56.922200000000004 77.3011 56.922200000000004C73.63220000000001 56.922200000000004 68.58720000000001 55.8489 63.24600000000001 54.71210000000001C62.26510000000001 54.50320000000001 61.28170000000001 54.29330000000001 60.30700000000001 54.091100000000004C53.83540000000001 52.76990000000001 48.34560000000001 51.994400000000006 43.98230000000001 51.78530000000001C42.40080000000001 57.14200000000001 40.15520000000001 59.9102 36.93400000000001 60.48650000000001C36.61320000000001 60.53920000000001 36.28950000000001 60.56570000000001 35.96610000000001 60.56570000000001C33.86470000000001 60.56570000000001 31.816400000000012 59.48060000000001 30.74750000000001 57.80100000000001C29.88470000000001 56.445600000000006 29.78560000000001 54.89570000000001 30.46720000000001 53.43670000000001C31.65040000000001 50.80780000000001 34.96480000000001 49.58020000000001 40.89540000000001 49.58020000000001C41.24260000000001 49.58020000000001 41.59710000000001 49.58420000000001 41.959300000000006 49.59190000000001C42.28560000000001 48.17970000000001 42.55700000000001 46.59890000000001 42.78170000000001 44.80310000000001C41.22400000000001 46.42020000000001 39.24060000000001 47.32140000000001 36.96280000000001 47.42880000000001L36.66150000000001 47.43380000000001C34.12540000000001 47.43380000000001 31.90960000000001 46.45820000000001 30.25320000000001 44.612400000000015C27.83490000000001 41.917200000000015 26.75770000000001 37.52170000000002 27.29720000000001 32.552000000000014C27.51410000000001 30.555900000000015 27.92520000000001 28.707300000000014 28.52140000000001 27.047200000000014C26.033000000000012 26.455400000000015 23.98870000000001 25.179900000000014 22.855900000000013 23.498300000000015C21.85200000000001 22.008000000000013 21.543400000000013 20.251200000000015 21.938400000000012 18.276500000000013C23.250800000000012 11.713000000000012 31.674200000000013 9.675050000000013 34.59370000000001 9.675050000000013C35.112200000000016 9.675050000000013 35.488700000000016 9.731800000000012 35.745500000000014 9.846860000000014C36.12300000000001 10.026600000000014 37.10290000000001 10.492400000000014 36.940300000000015 11.213000000000013C36.84710000000001 11.626200000000013 36.412500000000016 11.872200000000014 35.77730000000002 11.872200000000014C35.46480000000002 11.872200000000014 35.13460000000002 11.811900000000014 34.84810000000002 11.702400000000013C34.80360000000002 11.685800000000013 34.63370000000002 11.632100000000014 34.22160000000002 11.632100000000014C32.07950000000002 11.632100000000014 25.563900000000018 13.234600000000015 24.646400000000014 18.13990000000001C24.010700000000014 21.488500000000013 26.516000000000012 23.96220000000001 29.426700000000015 24.78540000000001C32.00040000000001 19.32520000000001 36.590800000000016 15.44260000000001 41.21480000000001 14.84610000000001C43.44770000000001 14.54610000000001 45.26550000000001 15.14180000000001 46.16500000000001 16.48170000000001C46.880800000000015 17.54910000000001 46.95160000000001 18.98850000000001 46.359800000000014 20.430800000000012C44.824100000000016 24.201400000000014 38.510700000000014 27.208300000000012 31.888100000000016 27.360600000000012C31.368000000000016 28.94350000000001 31.015100000000015 30.516000000000012 30.810000000000016 32.15440000000001C30.230900000000016 36.87420000000001 31.059100000000015 41.01960000000001 33.02540000000002 43.24230000000001C34.10640000000002 44.464000000000006 35.47940000000002 45.08330000000001 37.10680000000002 45.08420000000001C37.10680000000002 45.08420000000001 37.10680000000002 45.08420000000001 37.10730000000002 45.08420000000001C37.19910000000002 45.08420000000001 37.29090000000002 45.08250000000001 37.38420000000002 45.07750000000001C41.53310000000002 44.87440000000001 42.93400000000002 40.627100000000006 43.39980000000002 38.113600000000005L43.53210000000002 35.5658C43.610300000000024 33.4425 44.91840000000002 33.2777 45.317300000000024 33.2777C45.63420000000002 33.2777 46.53750000000002 33.4112 46.53750000000002 34.005C46.08150000000002 40.5919 45.41890000000002 45.7218 44.51310000000002 49.6886C49.47650000000002 50.0345 55.51990000000002 50.9935 60.818800000000024 51.8957C65.22210000000003 52.638099999999994 70.23280000000003 53.395599999999995 73.99940000000002 53.395599999999995C77.22200000000002 53.395599999999995 79.15760000000002 52.849799999999995 79.75430000000003 51.773599999999995C79.87450000000003 51.569599999999994 79.94560000000003 51.415099999999995 79.99850000000004 51.300999999999995C80.10200000000003 51.07749999999999 80.25920000000004 50.738499999999995 80.66060000000003 50.738499999999995C80.90670000000003 50.738499999999995 81.09420000000003 50.878299999999996 81.33140000000003 51.055899999999994C82.17810000000003 51.641799999999996 82.75820000000003 52.655499999999996 82.79640000000003 53.628299999999996ZM41.4052 51.7736C36.3173 51.857600000000005 34.5931 52.894800000000004 34.0518 53.7718C33.4184 54.8165 33.3334 55.9152 33.8212 56.7815C34.2782 57.5929 35.1493 58.077400000000004 36.1513 58.077400000000004C36.5116 58.077400000000004 36.8788 58.01390000000001 37.2431 57.88870000000001C38.9633 57.27080000000001 40.3637 55.21510000000001 41.4052 51.77360000000001ZM32.7826 25.0658C36.7367 24.7522 41.4784 22.770699999999998 42.787000000000006 20.0265C43.187400000000004 19.128899999999998 43.232800000000005 18.319499999999998 42.906800000000004 17.816599999999998C42.5756 17.305799999999998 41.91010000000001 17.199399999999997 41.4102 17.199399999999997C41.1542 17.199399999999997 40.873000000000005 17.226899999999997 40.5741 17.280499999999996C37.8066 17.807799999999997 34.737700000000004 20.896599999999996 32.7826 25.065799999999996Z " fill="#ffffff" fill-opacity="1" transform="matrix(1,0,0,1,-21,-9)"></path></svg>
