<?xml version="1.0" encoding="UTF-8" standalone="no"?>
<svg id="SvgjsSvg1000" xmlns="http://www.w3.org/2000/svg" height="64" viewBox="0 0 154 64" width="154" version="1.1" xmlns:xlink="http://www.w3.org/1999/xlink" xmlns:svgjs="http://svgjs.com/svgjs">
 <path id="SvgjsPath1007" fill="#fff" transform="translate(-21 -9)" d="m174.83 61.85c-0.45 6.77-5.75 11.099-12.89 11.099-6.87 0-10-3.162-10-6.099 0-1.621 1.25-2.834 2.48-3.194 0.18-0.042 0.29-0.055 0.38-0.055 0.29 0 0.45 0.129 0.54 0.237 0.21 0.264 0.14 0.567 0.05 0.951-0.03 0.109-0.06 0.234-0.09 0.378-0.18 1.021-0.18 2.515 0.88 3.772 1.16 1.386 3.36 2.12 6.36 2.12 4.54 0 9.61-3.597 9.89-9.407 0.2-4.773-2.15-8.119-6.06-8.758 0.34 0.84 0.54 1.766 0.61 2.766 0.17 2.586-0.49 4.849-1.85 6.372-1.1 1.235-2.61 1.929-4.35 2.008-1.47 0.073-2.66-0.424-3.51-1.394-0.95-1.078-1.36-2.693-1.13-4.43 0.44-3.403 2.66-6.05 5.89-7.093-1.65-1.312-4.02-2.081-6.81-2.183-3.24-0.13-6.06 0.543-8.43 1.969-1.21 7.442-3.69 16.016-6.78 16.016-0.64 0-1.23-0.395-1.68-1.114-1.04-1.694-1.26-5.306 0.73-9.24 1.48-2.914 3.18-5.055 5.19-6.54 0.25-2.357 0.44-4.803 0.56-7.297-0.98 1.26-2.15 1.97-3.35 2.005-1 1.398-2.29 2.165-3.65 2.165-1.19 0-2.27-0.486-3.16-1.405-1.31-1.372-1.98-3.498-1.88-5.987 0.16-4.011 1.81-7.016 4.39-8.038 0.52-0.218 1.05-0.064 1.25 0.341 0.56-0.655 1.26-1.107 2.11-1.259 0.73-0.13 1.42 0.166 1.98 0.818 1.19 1.359 1.65 3.974 1.23 6.996-0.24 1.643-0.61 3.068-1.11 4.254 0.93-0.686 1.84-2.452 2.34-4.697 0.01-1.496 0.01-2.898-0.02-4.281-0.03-1.055 0.31-1.637 0.61-1.94 0.29-0.305 0.69-0.479 1.08-0.479 1.08 0 1.13 0.626 1.13 1.731 0 0.442 0.01 0.835 0.02 1.314 0 0.23 0.01 0.483 0.01 0.769 1.21-2.612 2.75-4.055 4.39-4.055 0.74 0 1.41 0.308 1.95 0.867 1.1 1.152 1.62 3.438 1.48 6.563-0.28 5.664-3.5 8.248-6.56 8.248-0.58 0-1.12-0.003-1.64-0.211-0.06 0.679-0.13 1.556-0.21 2.225 2.47-1.057 5.34-1.058 8.84-0.831 4.06 0.246 7.08 2.4 8.97 4.4h0.24c2.77 0 5.26 0.225 7 2.08 1.86 1.979 2.77 4.393 2.58 7.523zm-38.86-22.807c-0.1 2.021 0.39 3.792 1.29 4.741 0.26 0.27 0.67 0.592 1.18 0.592 0.28 0 0.57-0.088 0.86-0.255-1.38-0.895-2.37-2.729-2.59-4.921-0.19-1.843 0-3.812 0.58-5.411-0.73 1.07-1.22 2.961-1.32 5.254zm4.96-5.112c-0.05-0.058-0.13-0.126-0.2-0.126-0.85 0.244-1.91 2.415-1.79 4.938 0.06 1.412 0.56 3.196 1.73 3.915 0.43-0.789 0.89-2.086 1.01-4.13 0.15-2.449-0.28-4.099-0.75-4.597zm11.39 5.142c0.21-3.239-0.2-4.914-0.66-5.4-0.12-0.132-0.21-0.132-0.24-0.132-0.64 0-2.69 2.878-3.75 9.673l-0.06 1.026c0.35 0.266 0.79 0.391 1.39 0.391 1.83 0 3.07-2.078 3.32-5.558zm-8.58 14.394c-0.83 0.962-1.55 2.038-2.14 3.214-1.78 3.561-1.7 6.02-1.22 6.806 0.09 0.142 0.19 0.22 0.28 0.232 0.59-0.284 2.05-3.616 3.08-10.252zm20.88 2.765c-0.07-1.258-0.41-2.38-1.01-3.342-2.67 0.507-4.55 2.398-4.95 5.001-0.22 1.304-0.01 2.412 0.58 3.126 0.45 0.54 1.09 0.821 1.9 0.837l0.11 0.002c0.77 0 1.47-0.317 2.04-0.916 0.96-1.025 1.45-2.74 1.33-4.708zm-31.24-8.429c-0.05 0.221-0.28 0.773-1.49 0.624-2.44-0.264-3.57-3.232-3.45-9.075 0.03-1.42 0.15-2.601 0.25-3.55 0.09-0.882 0.19-1.881 0.06-2.078-0.73 0.038-3.55 3.809-4.57 10.633-0.05 1.73-1.03 2.208-1.6 2.208-1.04 0-1.22-0.443-1.22-1.689 0-1.457 0.01-1.994 0.04-3.075 0.02-0.716 0.05-1.671 0.08-3.298 0.08-2.74 0.25-5.391 0.53-7.891-1.38 0.235-2.88 0.25-4.38 0.041-4.26-0.569-5.69-3.311-5.6-5.689 0.1-1.512 1.42-2.373 2.28-2.588 0.18-0.038 0.29-0.053 0.39-0.053 0.31 0 0.47 0.16 0.54 0.254 0.21 0.285 0.11 0.582-0.04 1.033l-0.08 0.251c-0.18 0.688-0.16 1.47 0.07 2.18 0.12 0.274 0.38 0.659 0.83 0.659 0.31 0 0.67-0.183 0.98-0.503 0.67-0.678 1.06-1.828 1.05-3.075-0.04-2.73-1.61-4.333-4.41-4.513-0.18-0.011-0.36-0.017-0.54-0.017-2.53 0-5.25 1.275-5.64 4.125-0.48 3.726 2.65 5.625 5.97 7.635l0.37 0.226c3.42 2.112 7.05 4.755 6.78 9.451-0.31 5.009-4.77 8.787-10.37 8.787-0.7 0-1.4-0.061-2.09-0.179-6.89-1.189-9.055-6.531-8.818-10.745 0.106-1.517 0.587-3.64 2.288-5.178 0.59-0.545 2.43-1.142 3.02-1.227 0.72-0.106 0.91 0.207 0.98 0.381 0.19 0.43-0.13 0.86-0.5 1.26-1.97 1.923-2.83 3.435-3.1 5.41-0.24 1.889 0.27 3.717 1.44 5.144 1.21 1.485 3.05 2.395 5.19 2.563 4.21 0.327 8.16-2.197 8.54-5.332 0.48-3.82-2.45-6.129-5.76-8.347l-0.69-0.457c-3.46-2.274-7.04-4.624-6.66-8.659 0.38-4.586 5.08-6.991 9.53-6.991 0.12 0 0.24 0.002 0.36 0.006 2.28 0.085 4.1 0.812 5.27 2.101 1.04 1.157 1.53 2.713 1.41 4.498-0.12 2.368-1.27 4.465-2.91 5.475 0.28 0.101 0.57 0.18 0.89 0.236 1.2 0.226 2.46 0.199 3.61-0.077 1.21-8.836 3.72-14.523 6.43-14.523 0.62 0 1.21 0.407 1.67 1.147 1.17 1.913 1.4 5.719-0.41 9.294-1.2 2.397-2.92 4.133-5.12 5.162-0.27 2.156-0.43 4.48-0.46 6.926 1.43-3.125 3.5-5.731 5.64-5.731 0.51 0 0.93 0.172 1.24 0.51 0.89 0.965 0.78 3.108 0.49 6.815-0.54 6.513 0.19 8.186 0.9 8.443 0.86 0.381 0.82 0.909 0.79 1.062zm-5.82-23.384c1.46-2.914 1.27-5.64 0.82-6.674-0.14-0.303-0.26-0.398-0.3-0.408-0.54 0.246-2.01 3.811-2.98 10.085 1-0.737 1.83-1.744 2.46-3.003zm-28.248 7.64c0.005 0-0.337 3.471-0.797 6.653-2.93 21.904-5.728 24.439-7.579 24.439-0.624 0-1.176-0.316-1.596-0.911-1.087-1.544-1.112-4.671-0.062-7.606 1.263-3.575 3.158-6.815 5.631-9.629l0.029-0.277c-0.869 1.337-1.832 2.049-2.814 2.049-0.987 0-2.657-0.494-3.58-3.539-1.501 2.618-3.475 4.091-5.54 4.091-2.077 0-3.905-1.294-4.914-3.39-0.801 1.927-1.911 3.771-3.229 3.771-1.082 0-1.913-1.272-2.297-3.415-0.951 1.591-2.079 2.503-3.258 2.606-0.062 0.005-0.116 0.007-0.17 0.007-1.236 0-2.666-1.068-3.394-3.127-1.215 2.204-2.594 3.441-3.876 3.441-1.686 0-3.319-2.004-4.281-5.128-1.074 2.607-2.733 5.107-4.574 5.107-0.703 0-1.424-0.37-2.085-1.07-1.521-1.611-3.174-5.625-2.826-11.634 0.517-8.309 3.554-19.898 7.328-19.898 0.286 0 0.701 0.094 1.057 0.541 1.293 1.628 0.768 7.124-0.018 10.508-1.055 4.307-3.351 9.391-5.112 12.272 0.283 4.745 1.406 6.881 2.122 6.881 0.767 0 2.432-2.667 3.316-6.853-0.118-1.293-0.138-2.651-0.058-4.036 0.542-8.715 3.722-20.869 7.67-20.869 0.294 0 0.723 0.097 1.09 0.56 1.352 1.702 0.8 7.462-0.025 11.009-1.106 4.521-3.518 9.862-5.367 12.885 0.297 5.003 1.491 7.255 2.253 7.255 0.576 0 1.923-1.639 2.982-5.159 0.655-6.058 4.193-8.196 7.02-8.196 1.535 0 2.402 0.577 2.86 1.061 0.583 0.618 0.874 1.469 0.82 2.396-0.13 1.005-1.649 1.89-2.4 2.031-0.541 0.115-0.805-0.102-0.896-0.233-0.222-0.32-0.095-0.663 0.116-1.23l0.049-0.135c0.279-0.898 0.307-1.525 0.077-1.838-0.162-0.22-0.501-0.332-1.007-0.332-1.654 0-3.04 2.295-3.449 5.711-0.314 2.543 0.261 4.513 0.929 5.268 0.158 0.178 0.319 0.28 0.441 0.28 0.813 0 1.925-1.622 2.477-4.721l0.025-0.316c0.02-0.274 0.04-0.53 0.102-0.873 0.188-0.975 1.313-1.416 2.279-1.416 0.421 0 0.703 0.091 0.865 0.276l0.149 0.173-0.014 0.279c-0.985 5.169-0.671 7.092-0.433 7.49 0.287-0.26 1.015-1.471 1.901-4.939-0.012-0.305-0.015-0.618-0.005-0.941 0.252-5.043 2.892-8.84 6.142-8.84 0.911 0 1.66 0.31 2.228 0.921 1.12 1.209 1.07 3.129 1.028 3.689-0.132 0.998-1.654 1.798-2.4 1.938-0.612 0.135-0.815-0.087-0.904-0.215-0.204-0.296-0.088-0.604 0.088-1.071l0.085-0.227c0.38-1.07 0.556-2.458 0.153-3.028-0.086-0.123-0.25-0.286-0.66-0.286-1.27 0-2.391 2.901-2.553 6.605-0.074 2.179 0.481 4.102 1.485 5.14 0.498 0.515 1.088 0.787 1.705 0.787 2.395 0 3.725-3.081 4.317-4.984-0.144-1.941-0.081-4.237 0.19-6.827 0.13-1.133 1.578-1.553 2.46-1.553 0.378 0 0.624 0.081 0.775 0.255l0.15 0.173-0.017 0.271c-0.842 6.682-0.728 10.688 0.341 11.899 0.205 0.233 0.438 0.341 0.733 0.341 0.821 0 2.371-2.895 3.025-8.13 0.091-1.386 0.22-2.687 0.341-3.452 0.127-1.096 1.557-1.511 2.428-1.511 0.407 0 0.669 0.091 0.823 0.288l0.15 0.192zm-45.132-6.306c0.981-3.774 0.93-6.969 0.64-7.847-1.034 1.39-3.09 9.68-3.45 15.845 1.148-2.629 2.255-5.748 2.81-7.998zm8.938-1.017c1.052-4.048 0.977-7.436 0.656-8.299-1.088 1.358-3.303 10.256-3.662 16.826 1.226-2.789 2.415-6.13 3.006-8.527zm28.415 30.028c-0.983 2.644-0.834 4.302-0.369 4.973 0.122 0.174 0.241 0.243 0.311 0.25 0.563-0.227 1.79-3.454 2.905-11.133-1.123 1.871-2.124 3.94-2.847 5.91zm-8.737-1.136c0.023 0.595-0.137 1.457-1.029 2.182-0.893 0.747-2.355 1.112-4.466 1.112-3.669 0-8.714-1.073-14.055-2.21-0.981-0.209-1.964-0.419-2.939-0.621-6.472-1.321-11.961-2.097-16.325-2.306-1.581 5.357-3.827 8.125-7.048 8.702-0.321 0.052-0.644 0.079-0.968 0.079-2.101 0-4.15-1.085-5.218-2.765-0.863-1.355-0.962-2.905-0.281-4.364 1.183-2.629 4.498-3.857 10.428-3.857 0.348 0 0.702 0.004 1.064 0.012 0.327-1.412 0.598-2.993 0.823-4.789-1.558 1.617-3.541 2.518-5.819 2.626l-0.301 0.005c-2.537 0-4.752-0.976-6.409-2.822-2.418-2.695-3.495-7.09-2.956-12.06 0.217-1.996 0.628-3.845 1.224-5.505-2.488-0.592-4.532-1.867-5.665-3.549-1.004-1.49-1.313-3.247-0.918-5.221 1.313-6.564 9.736-8.6019 12.656-8.6019 0.518 0 0.895 0.0567 1.152 0.1718 0.377 0.1801 1.357 0.6451 1.194 1.3661-0.093 0.413-0.527 0.659-1.163 0.659-0.312 0-0.642-0.06-0.929-0.17-0.044-0.016-0.214-0.07-0.626-0.07-2.142 0-8.658 1.603-9.576 6.508-0.635 3.349 1.87 5.822 4.781 6.645 2.573-5.46 7.164-9.342 11.788-9.939 2.233-0.3 4.051 0.296 4.95 1.636 0.716 1.067 0.787 2.507 0.195 3.949-1.536 3.77-7.849 6.777-14.472 6.93-0.52 1.583-0.873 3.155-1.078 4.793-0.579 4.72 0.249 8.866 2.215 11.088 1.081 1.222 2.454 1.841 4.082 1.842 0.092 0 0.184-0.001 0.277-0.006 4.149-0.204 5.55-4.451 6.016-6.964l0.132-2.548c0.078-2.124 1.386-2.288 1.785-2.288 0.317 0 1.221 0.133 1.221 0.727-0.456 6.587-1.119 11.717-2.025 15.684 4.964 0.345 11.007 1.305 16.306 2.207 4.403 0.742 9.414 1.5 13.18 1.5 3.223 0 5.159-0.546 5.755-1.622 0.121-0.204 0.192-0.359 0.245-0.473 0.103-0.224 0.26-0.563 0.662-0.563 0.246 0 0.433 0.14 0.67 0.318 0.847 0.586 1.427 1.599 1.465 2.572zm-41.391-1.854c-5.088 0.084-6.812 1.121-7.353 1.998-0.634 1.044-0.719 2.143-0.231 3.01 0.457 0.811 1.328 1.295 2.33 1.295 0.361 0 0.728-0.063 1.092-0.188 1.72-0.618 3.121-2.674 4.162-6.115zm-8.622-26.708c3.954-0.314 8.695-2.295 10.004-5.04 0.4-0.897 0.446-1.707 0.12-2.209-0.331-0.511-0.997-0.618-1.497-0.618-0.256 0-0.537 0.028-0.836 0.081-2.767 0.528-5.836 3.617-7.791 7.786z"/>
</svg>
